<svg t="1694273551984" class="icon" viewBox="0 0 1024 1024" version="1.1" xmlns="http://www.w3.org/2000/svg" p-id="66928" width="200" height="200"><path d="M199.36 572.768a31.904 31.904 0 0 0 22.624-9.376l294.144-294.144 285.728 285.728a31.968 31.968 0 1 0 45.248-45.248L538.752 201.376a32 32 0 0 0-45.28 0L176.704 518.144a31.968 31.968 0 0 0 22.656 54.624z" fill="#2c2c2c" p-id="66929"></path><path d="M538.784 457.376a32 32 0 0 0-45.28 0L176.736 774.144a31.968 31.968 0 1 0 45.248 45.248l294.144-294.144 285.728 285.728a31.968 31.968 0 1 0 45.248-45.248l-308.32-308.352z" fill="#2c2c2c" p-id="66930"></path></svg>