<svg t="1694271451027" class="icon" viewBox="0 0 1024 1024" version="1.1" xmlns="http://www.w3.org/2000/svg" p-id="49417" data-spm-anchor-id="a313x.search_index.0.i46.795d3a81E7GBf3" width="200" height="200"><path d="M925.696 127.488H98.304C44.032 127.488 0 171.52 0 225.28v573.44c0 54.272 44.032 98.304 98.304 98.304h827.904c54.272 0 98.304-44.032 98.304-98.304V225.28c-0.512-53.76-44.544-97.792-98.816-97.792zM68.608 225.28c0-16.384 13.312-29.184 29.184-29.184h827.904c16.384 0 29.184 13.312 29.184 29.184v573.44c0 16.384-13.312 29.184-29.184 29.184H98.304c-16.384 0-29.184-13.312-29.184-29.184V225.28z" fill="#ffffff" p-id="49418" data-spm-anchor-id="a313x.search_index.0.i43.795d3a81E7GBf3" class="selected"></path><path d="M175.104 434.688l318.464 212.48c5.632 3.584 12.288 5.632 18.944 5.632 6.656 0 13.312-2.048 18.944-5.632L849.92 434.688c14.848-10.752 18.944-30.72 9.216-46.08-10.24-15.872-31.232-20.992-47.616-10.752l-299.52 199.68-299.52-199.68c-0.512-0.512-1.024-0.512-1.536-1.024-15.872-10.24-37.376-5.12-47.616 10.752-8.704 15.872-4.096 37.376 11.776 47.104z" fill="#ffffff" p-id="49419" data-spm-anchor-id="a313x.search_index.0.i44.795d3a81E7GBf3" class="selected"></path></svg>