<svg t="1694265107045" class="icon" viewBox="0 0 1024 1024" version="1.1" xmlns="http://www.w3.org/2000/svg" p-id="25731" width="200" height="200"><path d="M806.4 957.44a16.861867 16.861867 0 0 1-6.843733-1.4336l-291.0208-127.573333-271.36 117.367466a17.066667 17.066667 0 0 1-23.7568-17.373866l29.0816-287.368534L30.395733 421.461333a17.066667 17.066667 0 1 1 9.028267-28.603733l312.234667-60.791467L495.4112 76.117333a17.0496 17.0496 0 0 1 29.559467-0.341333l158.9248 267.912533 300.1856 49.066667a17.066667 17.066667 0 0 1 9.642666 28.5696l-216.917333 229.393067 46.4384 286.9248a17.0496 17.0496 0 0 1-16.8448 19.797333zM508.586667 792.746667c2.338133 0 4.6592 0.477867 6.843733 1.4336l269.124267 117.9648-42.786134-264.2944c-0.853333-5.256533 0.802133-10.5984 4.4544-14.472534l200.6016-212.138666-276.2752-45.1584a17.066667 17.066667 0 0 1-11.9296-8.1408L510.685867 118.613333l-133.137067 237.056a17.066667 17.066667 0 0 1-11.6224 8.3968L76.782933 420.352 272.554667 623.035733a17.0496 17.0496 0 0 1 4.7104 13.568l-26.948267 266.325334 251.4944-108.782934c2.1504-0.9216 4.471467-1.399467 6.775467-1.399466z" p-id="25732"></path></svg>