<svg t="1694266278252" class="icon" viewBox="0 0 1024 1024" version="1.1" xmlns="http://www.w3.org/2000/svg" p-id="33260" width="200" height="200"><path d="M407.780659 375.719117c39.401984-102.277427 78.802944-204.554854 118.294938-306.794394 39.493018 102.240563 78.89193 204.516966 118.294938 306.794394 109.475738 6.00064 218.948403 11.800781 328.424141 17.766605C887.864013 462.778982 802.626253 531.70985 717.622886 600.894566c28.159488 105.94601 56.44585 211.837645 84.570522 317.801062-92.052173-59.532902-184.065536-119.122022-276.117709-178.636493-92.069581 59.51447-184.084992 119.13943-276.171981 178.636493 28.231066-105.927578 56.44585-211.855053 84.622746-317.801062C249.505587 531.70985 164.287283 462.76055 79.338086 393.485824 188.8128 387.519898 298.305946 381.720883 407.780659 375.719117zM525.985587 172.19584c-30.978765 79.703245-61.398835 159.660339-92.503552 239.32672-85.453619 4.537344-170.908365 9.163674-256.361984 13.771674 66.422477 54.058189 133.006643 107.936256 199.374848 162.028237-22.051123 82.702541-44.101222 165.407232-66.06121 248.127181 71.935283-46.411059 143.760998-92.98473 215.64201-139.489894 71.862579 46.504141 143.688294 93.043098 215.60617 139.454157-21.995827-82.667827-43.920077-165.35296-66.042778-248.002355 66.314957-54.218854 132.989235-108.006912 199.392256-162.135654-85.471027-4.590592-170.943181-9.181082-256.415232-13.790106C587.489792 331.819315 557.290803 251.772211 525.985587 172.19584z" fill="#ffffff" p-id="33261" data-spm-anchor-id="a313x.search_index.0.i19.795d3a81E7GBf3" class=""></path></svg>